<?xml version="1.0" encoding="UTF-8"?>
<svg width="12px" height="10px" viewBox="0 0 12 10" version="1.1" xmlns="http://www.w3.org/2000/svg" xmlns:xlink="http://www.w3.org/1999/xlink">
    <title>Icon/Arrow Copy 2</title>
    <g id="LandingPage" stroke="none" stroke-width="1" fill="none" fill-rule="evenodd">
        <g id="Animation" transform="translate(-1387.000000, -7874.000000)" fill="#000000" fill-rule="nonzero">
            <g id="Group-4-Copy-2" transform="translate(1370.000000, 7856.000000)">
                <g id="Group" transform="translate(10.000000, 10.000000)">
                    <g id="Group" transform="translate(13.000000, 12.998035) rotate(-180.000000) translate(-13.000000, -12.998035) translate(7.312500, 8.937500)">
                        <path d="M0.132985839,4.44779288 L2.97681557,7.90091604 C3.21209513,8.16428778 3.589359,8.18943464 3.83700886,7.98667537 C4.08463842,7.7839161 4.12544621,7.37411164 3.92264632,7.12650239 L1.89769427,4.66995058 L10.765605,4.66995058 C11.1021626,4.66995058 11.375,4.39713354 11.375,4.06059621 C11.375,3.72403858 11.1021626,3.45121545 10.765605,3.45121545 L1.89769427,3.45121545 L3.92264632,0.994663631 C4.12544621,0.747074701 4.07980405,0.343018666 3.83700886,0.134510965 C3.58663712,-0.0805170455 3.17955453,-0.0273998863 2.97681557,0.220249982 L0.132985839,3.67337923 C-0.0521421869,3.93368378 -0.0363390704,4.19608052 0.132985839,4.44779288 Z" id="Path"></path>
                    </g>
                </g>
            </g>
        </g>
    </g>
</svg>